<?xml version="1.0" standalone="no"?><!DOCTYPE svg PUBLIC "-//W3C//DTD SVG 1.1//EN" "http://www.w3.org/Graphics/SVG/1.1/DTD/svg11.dtd"><svg t="1665632022649" class="icon" viewBox="0 0 1277 1024" version="1.1" xmlns="http://www.w3.org/2000/svg" p-id="2570" xmlns:xlink="http://www.w3.org/1999/xlink" width="249.4140625" height="200"><path d="M626.837443 683.02998c-20.587783 2.058778-39.116788 11.928804-52.135533 27.914612a76.598664 76.598664 0 0 0-17.196854 56.555851l2.664301 25.371416 2.482645-2.543197c10.959967 27.672403 37.905742 46.988587 68.545207 46.988587 3.69369 0 7.387381-0.181657 10.77831-0.484418a77.446396 77.446396 0 0 0 69.392939-84.470463 78.051919 78.051919 0 0 0-84.531015-69.332388z" p-id="2571"></path><path d="M1244.168175 926.268583L682.061144 44.384838a57.888002 57.888002 0 0 0-57.706345-23.91816 57.706345 57.706345 0 0 0-37.421324 24.281474L24.826444 926.147478a50.379516 50.379516 0 0 0-8.053456 28.035716c2.058778 28.338478 25.25031 49.652889 53.286027 49.652889l2.36154-0.060552 1123.669091-0.060553a53.528236 53.528236 0 0 0 55.950328-49.592336l0.060552-3.027615a48.260186 48.260186 0 0 0-7.932351-24.826444z m-172.574065-39.722311H197.218852l437.248181-685.63373 437.127077 685.63373z" p-id="2572"></path><path d="M601.466028 372.033351a22.888771 22.888771 0 0 0-22.525457 21.919934l0.060553 226.162852c0.726628 11.807699 10.717758 21.193306 22.464904 21.193307h0.666075l64.124889-0.121105h0.968837a22.767666 22.767666 0 0 0 22.525457-21.919934V393.347762a23.009875 23.009875 0 0 0-22.949323-21.314411H601.466028z" p-id="2573"></path></svg>