<?xml version="1.0" standalone="no"?><!DOCTYPE svg PUBLIC "-//W3C//DTD SVG 1.1//EN" "http://www.w3.org/Graphics/SVG/1.1/DTD/svg11.dtd"><svg t="1663406930577" class="icon" viewBox="0 0 1024 1024" version="1.1" xmlns="http://www.w3.org/2000/svg" p-id="2535" xmlns:xlink="http://www.w3.org/1999/xlink" width="200" height="200"><path d="M538.54 880.62c-13.97 0-28.06-3.13-41.31-9.49-33.23-15.96-53.87-48.77-53.87-85.63V680.96l-223.1 178.69c-28.77 23.04-67.29 27.45-100.52 11.49s-53.87-48.77-53.87-85.63V255.86c0-36.86 20.64-69.68 53.87-85.64 33.23-15.96 71.75-11.56 100.52 11.49l223.1 178.69V255.86c0-36.86 20.64-69.68 53.87-85.64 33.23-15.96 71.75-11.56 100.52 11.49l330.64 264.82c22.63 18.13 35.61 45.15 35.61 74.15 0 29-12.98 56.02-35.61 74.15L597.75 859.64c-17.3 13.86-38.13 20.98-59.21 20.98z m-60.17-307.54a35.006 35.006 0 0 1 35 35v177.41c0 14.19 9.92 20.49 14.18 22.54 4.26 2.05 15.38 5.85 26.45-3.02l330.64-264.82c8.16-6.53 9.37-15.03 9.37-19.51 0-4.48-1.22-12.98-9.37-19.51L553.99 236.35c-11.08-8.87-22.19-5.07-26.45-3.02-4.26 2.05-14.18 8.34-14.18 22.54v177.41c0 13.46-7.72 25.72-19.85 31.55a34.993 34.993 0 0 1-37.03-4.23L176.5 236.35c-11.08-8.87-22.19-5.07-26.45-3.02-4.26 2.05-14.18 8.34-14.18 22.54V785.5c0 14.19 9.91 20.49 14.18 22.54 4.26 2.05 15.37 5.85 26.45-3.02l279.98-224.24c6.33-5.09 14.08-7.7 21.89-7.7z" p-id="2536" fill="#ffffff"></path></svg>