<?xml version="1.0" standalone="no"?><!DOCTYPE svg PUBLIC "-//W3C//DTD SVG 1.1//EN" "http://www.w3.org/Graphics/SVG/1.1/DTD/svg11.dtd"><svg t="1663321052575" class="icon" viewBox="0 0 1024 1024" version="1.1" xmlns="http://www.w3.org/2000/svg" p-id="8579" xmlns:xlink="http://www.w3.org/1999/xlink" width="200" height="200"><path d="M549.376 444.928c18.944 10.752 18.944 38.4 0 49.664l-174.08 100.352-174.08 100.352c-18.944 10.752-43.008-2.56-43.008-24.576v-401.408c0-22.016 23.552-35.84 43.008-24.576l174.08 100.352 174.08 99.84z" fill="#ffffff" p-id="8580"></path><path d="M186.88 724.992c-9.216 0-18.432-2.56-27.136-7.168-16.896-9.728-27.136-27.136-27.136-47.104v-401.92c0-19.456 10.24-36.864 27.136-47.104 16.896-9.728 37.376-9.728 54.272 0l348.16 200.704c16.896 9.728 27.136 27.136 27.136 47.104 0 19.456-10.24 36.864-27.136 47.104l-348.16 200.704c-8.704 5.12-17.92 7.68-27.136 7.68z m0-459.264c-0.512 0-1.024 0-1.536 0.512-1.536 1.024-1.536 2.048-1.536 2.56V670.72c0 0.512 0 1.536 1.536 2.56s2.56 0 3.072 0l348.16-200.704c0.512 0 1.536-1.024 1.536-2.56s-1.024-2.56-1.536-2.56l-348.16-200.704c-0.512-0.512-1.024-1.024-1.536-1.024z" fill="#ffffff" p-id="8581"></path><path d="M840.192 444.928c18.944 10.752 18.944 38.4 0 49.664l-174.08 100.352-174.08 100.352c-18.944 10.752-43.008-2.56-43.008-24.576v-401.408c0-22.016 23.552-35.84 43.008-24.576l174.08 100.352 174.08 99.84z" fill="#ffffff" p-id="8582"></path><path d="M477.696 724.992c-9.216 0-18.432-2.56-27.136-7.168-16.896-9.728-27.136-27.136-27.136-47.104v-401.92c0-19.456 10.24-36.864 27.136-47.104 16.896-9.728 37.376-9.728 54.272 0l348.16 200.704c16.896 9.728 27.136 27.136 27.136 47.104 0 19.456-10.24 36.864-27.136 47.104l-348.16 200.704c-8.704 5.12-17.92 7.68-27.136 7.68z m0-459.264c-0.512 0-1.024 0-1.536 0.512-1.536 1.024-1.536 2.048-1.536 2.56V670.72c0 0.512 0 1.536 1.536 2.56s2.56 0 3.072 0l348.16-200.704c0.512 0 1.536-1.024 1.536-2.56s-1.024-2.56-1.536-2.56l-348.16-200.704c0-0.512-0.512-1.024-1.536-1.024z" fill="#ffffff" p-id="8583"></path><path d="M874.496 717.824c-14.336 0-25.6-11.264-25.6-25.6v-445.952c0-14.336 11.264-25.6 25.6-25.6s25.6 11.264 25.6 25.6v445.952c0 13.824-11.776 25.6-25.6 25.6z" fill="#ffffff" p-id="8584"></path></svg>