<?xml version="1.0" standalone="no"?><!DOCTYPE svg PUBLIC "-//W3C//DTD SVG 1.1//EN" "http://www.w3.org/Graphics/SVG/1.1/DTD/svg11.dtd"><svg t="1663320958758" class="icon" viewBox="0 0 1024 1024" version="1.1" xmlns="http://www.w3.org/2000/svg" p-id="4532" xmlns:xlink="http://www.w3.org/1999/xlink" width="200" height="200"><path d="M0 921.59115V102.394401C0 45.838157 45.8508 0 102.405238 0h819.196749c56.556244 0 102.394401 45.838157 102.394401 102.394401v819.198555c0 56.556244-45.838157 102.407044-102.394401 102.407044H102.405238C45.8508 1023.998194 0 978.147394 0 921.59115zM921.601987 76.796704H102.405238c-18.109124 0-25.610341 7.49941-25.610341 25.597697v819.198555c0 18.109124 7.501216 25.610341 25.610341 25.61034h844.796252V102.394401c0-18.098287-7.49941-25.597697-25.599503-25.597697z" fill="#ffffff" p-id="4533"></path><path d="M153.602438 204.799639v127.993904c0 21.215816 17.187954 38.401964 38.403771 38.401964 21.204979 0 38.392933-17.187954 38.392933-38.401964v-102.394401h102.403432c21.204979 0 38.40377-17.196985 38.40377-38.40377s-17.198791-38.392933-38.40377-38.392934h-128.002935c-28.278122 0-51.1972 22.919078-51.197201 51.197201zM870.395755 204.799639v127.993904c0 21.215816-17.187954 38.401964-38.392933 38.401964s-38.40377-17.187954-38.40377-38.401964v-102.394401h-102.392595c-21.215816 0-38.40377-17.196985-38.40377-38.40377s17.187954-38.392933 38.40377-38.392934h127.992098c28.278122 0 51.1972 22.919078 51.1972 51.197201zM153.602438 819.198555v-128.006548c0-21.203173 17.187954-38.401964 38.403771-38.401964 21.204979 0 38.392933 17.198791 38.392933 38.401964v102.407045h102.403432c21.204979 0 38.40377 17.187954 38.40377 38.392933 0 21.215816-17.198791 38.40377-38.40377 38.40377h-128.002935c-28.278122 0-51.1972-22.920885-51.197201-51.1972zM819.196749 870.395755h-127.992098c-21.215816 0-38.40377-17.187954-38.40377-38.40377 0-21.204979 17.187954-38.392933 38.40377-38.392933h102.392595v-102.407045c0-21.203173 17.196985-38.401964 38.40377-38.401964s38.392933 17.198791 38.392933 38.401964v128.006548c0.001806 28.276316-22.917272 51.1972-51.1972 51.1972z" fill="#ffffff" p-id="4534"></path></svg>