<?xml version="1.0" standalone="no"?><!DOCTYPE svg PUBLIC "-//W3C//DTD SVG 1.1//EN" "http://www.w3.org/Graphics/SVG/1.1/DTD/svg11.dtd"><svg t="1663425860389" class="icon" viewBox="0 0 1024 1024" version="1.1" xmlns="http://www.w3.org/2000/svg" p-id="12044" xmlns:xlink="http://www.w3.org/1999/xlink" width="200" height="200"><path d="M511.769756 128.136356c-150.787238 0-273.471418 129.689734-273.471418 289.104467 0 98.061386 47.62467 189.886745 125.121695 242.919589l0 53.939493c0 50.765197 25.960255 97.902774 68.336388 125.155465 12.639878 32.694633 44.224224 54.778604 80.002079 54.778604 35.710316 0 67.271126-22.01541 79.944773-54.642504 42.421158-27.16264 68.404949-74.345242 68.404949-125.291564l0-53.962006c77.497025-53.009308 125.109416-144.846946 125.109416-242.897076C785.217638 257.82609 662.556994 128.136356 511.769756 128.136356zM409.854599 672.244634l203.568349 0 0.096191 16.143679L409.854599 688.388313 409.854599 672.244634zM561.095161 803.611567l-8.728802 4.852518-2.493797 9.658987c-4.489244 17.34504-20.156062 29.475312-38.113039 29.475312-17.97949 0-33.658587-12.152784-38.113039-29.54285l-2.482541-9.6815-8.717546-4.852518c-3.320629-1.848091-6.42227-3.972475-9.475815-6.14393l92.255147 0c12.833283 0 23.216771-10.384511 23.216771-23.216771 0-12.833283-10.384511-23.216771-23.216771-23.216771L418.5834 750.944044c-0.556679 0-1.023306 0.277316-1.569752 0.316202-2.076288-5.306866-3.63376-10.80816-4.803399-16.436344l199.125153 0C605.368504 763.712859 587.367525 789.061177 561.095161 803.611567zM627.447359 625.810069 396.068617 625.810069c-68.682265-43.635823-111.335714-123.120109-111.335714-208.569246 0-133.805472 101.847619-242.669902 227.036853-242.669902 125.166721 0 227.01434 108.86443 227.01434 242.669902C738.784096 502.68996 696.129624 582.174246 627.447359 625.810069z" p-id="12045" fill="#ffffff"></path><path d="M223.968981 398.795728c0-12.822027-10.395768-23.216771-23.216771-23.216771l-94.977141 0c-12.822027 0-23.216771 10.395768-23.216771 23.216771s10.395768 23.216771 23.216771 23.216771l94.977141 0C213.573213 422.013523 223.968981 411.617755 223.968981 398.795728z" p-id="12046" fill="#ffffff"></path><path d="M920.213215 375.578957l-94.977141 0c-12.833283 0-23.216771 10.395768-23.216771 23.216771s10.384511 23.216771 23.216771 23.216771l94.977141 0c12.833283 0 23.216771-10.395768 23.216771-23.216771S933.046498 375.578957 920.213215 375.578957z" p-id="12047" fill="#ffffff"></path><path d="M149.953244 216.277812l82.269725 47.499827c3.66139 2.109034 7.652284 3.105734 11.585873 3.105734 8.025791 0 15.82543-4.160763 20.133549-11.608386 6.404873-11.098779 2.607384-25.303292-8.502651-31.719422l-82.268702-47.499827c-11.132548-6.41613-25.314549-2.607384-31.719422 8.502651C135.045719 195.656145 138.843208 209.861682 149.953244 216.277812z" p-id="12048" fill="#ffffff"></path><path d="M878.495068 583.275323l-82.257445-47.477314c-11.110035-6.427386-25.303292-2.618641-31.719422 8.502651-6.41613 11.110035-2.607384 25.303292 8.502651 31.719422l82.257445 47.477314c3.650133 2.109034 7.641027 3.105734 11.585873 3.105734 8.026814 0 15.82543-4.172019 20.133549-11.608386C893.413849 603.88471 889.605104 589.691453 878.495068 583.275323z" p-id="12049" fill="#ffffff"></path><path d="M229.410923 534.550599l-82.257445 47.499827c-11.110035 6.41613-14.907525 20.609387-8.502651 31.719422 4.308119 7.459902 12.107759 11.608386 20.133549 11.608386 3.933589 0 7.93574-0.997724 11.585873-3.105734l82.257445-47.499827c11.110035-6.41613 14.907525-20.609387 8.502651-31.719422C254.702959 531.943215 240.486166 528.134469 229.410923 534.550599z" p-id="12050" fill="#ffffff"></path><path d="M781.839705 265.648242c3.944845 0 7.93574-0.997724 11.585873-3.105734l82.280981-47.488571c11.110035-6.41613 14.918781-20.609387 8.502651-31.719422-6.438643-11.121292-20.632923-14.930037-31.719422-8.502651l-82.280981 47.488571c-11.110035 6.41613-14.918781 20.609387-8.502651 31.719422C766.014274 261.487479 773.813914 265.648242 781.839705 265.648242z" p-id="12051" fill="#ffffff"></path></svg>