<?xml version="1.0" standalone="no"?><!DOCTYPE svg PUBLIC "-//W3C//DTD SVG 1.1//EN" "http://www.w3.org/Graphics/SVG/1.1/DTD/svg11.dtd"><svg t="1663321232388" class="icon" viewBox="0 0 1024 1024" version="1.1" xmlns="http://www.w3.org/2000/svg" p-id="1488" xmlns:xlink="http://www.w3.org/1999/xlink" width="200" height="200"><path d="M483.328 444.928c-18.944 10.752-18.944 38.4 0 49.664l174.08 100.352 174.08 100.352c18.944 10.752 43.008-2.56 43.008-24.576v-401.408c0-22.016-23.552-35.84-43.008-24.576l-174.08 100.352-174.08 99.84z" fill="#FFFFFF" p-id="1489"></path><path d="M818.688 717.824l-348.16-200.704c-16.896-9.728-27.136-27.136-27.136-47.104 0-19.456 10.24-36.864 27.136-47.104l348.16-200.704c16.896-9.728 37.376-9.728 54.272 0s27.136 27.136 27.136 47.104V670.72c0 19.456-10.24 36.864-27.136 47.104-8.704 5.12-17.92 7.168-27.136 7.168-9.216 0-18.432-2.56-27.136-7.168z m25.6-451.584l-348.16 200.704c-0.512 0-1.536 1.024-1.536 2.56s1.024 2.56 1.536 2.56l348.16 200.704c0.512 0 1.536 1.024 3.072 0s1.536-2.048 1.536-2.56v-401.92c0-0.512 0-1.536-1.536-2.56-0.512-0.512-1.024-0.512-1.536-0.512-0.512 0.512-1.024 1.024-1.536 1.024z" fill="#000000" p-id="1490"></path><path d="M192.512 444.928c-18.944 10.752-18.944 38.4 0 49.664l174.08 100.352 174.08 100.352c18.944 10.752 43.008-2.56 43.008-24.576v-401.408c0-22.016-23.552-35.84-43.008-24.576l-174.08 100.352-174.08 99.84z" fill="#FFFFFF" p-id="1491"></path><path d="M527.872 717.824l-348.16-200.704c-16.896-9.728-27.136-27.136-27.136-47.104 0-19.456 10.24-36.864 27.136-47.104l348.16-200.704c16.896-9.728 37.376-9.728 54.272 0s27.136 27.136 27.136 47.104V670.72c0 19.456-10.24 36.864-27.136 47.104-8.704 5.12-17.92 7.168-27.136 7.168-9.216 0-18.432-2.56-27.136-7.168z m25.6-451.584l-348.16 200.704c-0.512 0-1.536 1.024-1.536 2.56s1.024 2.56 1.536 2.56l348.16 200.704c0.512 0 1.536 1.024 3.072 0s1.536-2.048 1.536-2.56v-401.92c0-0.512 0-1.536-1.536-2.56-0.512-0.512-1.024-0.512-1.536-0.512-1.024 0.512-1.536 1.024-1.536 1.024z" fill="#000000" p-id="1492"></path><path d="M158.208 717.824c14.336 0 25.6-11.264 25.6-25.6v-445.952c0-14.336-11.264-25.6-25.6-25.6s-25.6 11.264-25.6 25.6v445.952c0 13.824 11.776 25.6 25.6 25.6z" fill="#000000" p-id="1493"></path></svg>