<?xml version="1.0" standalone="no"?><!DOCTYPE svg PUBLIC "-//W3C//DTD SVG 1.1//EN" "http://www.w3.org/Graphics/SVG/1.1/DTD/svg11.dtd"><svg t="1663406947327" class="icon" viewBox="0 0 1024 1024" version="1.1" xmlns="http://www.w3.org/2000/svg" p-id="2736" xmlns:xlink="http://www.w3.org/1999/xlink" width="200" height="200"><path d="M868.83 880.62c-21.08 0-41.91-7.12-59.21-20.97l-223.1-178.69V785.5c0 36.86-20.64 69.68-53.87 85.63-33.23 15.96-71.74 11.56-100.52-11.49L101.49 594.83c-22.63-18.13-35.61-45.15-35.61-74.15 0-29 12.98-56.02 35.61-74.15l330.64-264.82c28.77-23.04 67.29-27.44 100.52-11.49 33.23 15.96 53.87 48.77 53.87 85.64V360.4l223.1-178.69c28.77-23.04 67.29-27.45 100.52-11.49C943.36 186.19 964 219 964 255.86v529.63c0 36.86-20.64 69.68-53.87 85.63-13.24 6.37-27.33 9.5-41.3 9.5zM551.51 573.08c7.81 0 15.55 2.61 21.88 7.68L853.37 805c11.08 8.87 22.19 5.07 26.45 3.02 4.26-2.05 14.18-8.34 14.18-22.54V255.86c0-14.19-9.91-20.49-14.18-22.54-4.26-2.05-15.37-5.85-26.45 3.02L573.39 460.59a34.993 34.993 0 0 1-37.03 4.23 35.006 35.006 0 0 1-19.85-31.55V255.86c0-14.19-9.91-20.49-14.18-22.54-4.26-2.05-15.37-5.85-26.45 3.02L145.25 501.16l-21.88-27.32 21.88 27.32c-8.15 6.53-9.37 15.03-9.37 19.51 0 4.48 1.22 12.98 9.37 19.51l330.64 264.81c11.08 8.87 22.19 5.07 26.45 3.02 4.26-2.05 14.18-8.34 14.18-22.54V608.08a35.006 35.006 0 0 1 34.99-35z" p-id="2737" fill="#ffffff"></path></svg>