<?xml version="1.0" standalone="no"?><!DOCTYPE svg PUBLIC "-//W3C//DTD SVG 1.1//EN" "http://www.w3.org/Graphics/SVG/1.1/DTD/svg11.dtd"><svg t="1663417764456" class="icon" viewBox="0 0 1024 1024" version="1.1" xmlns="http://www.w3.org/2000/svg" p-id="10271" xmlns:xlink="http://www.w3.org/1999/xlink" width="200" height="200"><path d="M128 128h85.333333v85.333333H128zM128 298.666667h85.333333v85.333333H128zM128 469.333333h85.333333v85.333334H128zM128 640h85.333333v85.333333H128zM128 810.666667h85.333333v85.333333H128zM298.666667 128h85.333333v85.333333H298.666667zM469.333333 128h85.333334v85.333333h-85.333334zM640 128h85.333333v85.333333h-85.333333zM810.666667 128h85.333333v85.333333h-85.333333zM810.666667 298.666667h85.333333v85.333333h-85.333333zM853.333333 469.333333h-106.666666l-51.2-68.266666c-8.533333-12.8-21.333333-17.066667-34.133334-17.066667h-128c-12.8 0-25.6 4.266667-34.133333 17.066667L448 469.333333H341.333333c-25.6 0-42.666667 17.066667-42.666666 42.666667v341.333333c0 25.6 17.066667 42.666667 42.666666 42.666667h512c25.6 0 42.666667-17.066667 42.666667-42.666667v-341.333333c0-25.6-17.066667-42.666667-42.666667-42.666667z m-42.666666 341.333334H384v-256h106.666667l64-85.333334h85.333333l64 85.333334H810.666667v256z" p-id="10272" fill="#ffffff"></path><path d="M597.333333 682.666667m-85.333333 0a85.333333 85.333333 0 1 0 170.666667 0 85.333333 85.333333 0 1 0-170.666667 0Z" p-id="10273" fill="#ffffff"></path></svg>