<?xml version="1.0" standalone="no"?><!DOCTYPE svg PUBLIC "-//W3C//DTD SVG 1.1//EN" "http://www.w3.org/Graphics/SVG/1.1/DTD/svg11.dtd"><svg t="1665648543760" class="icon" viewBox="0 0 1024 1024" version="1.1" xmlns="http://www.w3.org/2000/svg" p-id="2796" xmlns:xlink="http://www.w3.org/1999/xlink" width="200" height="200"><path d="M110.819 272C104.289 272 99 278.652 99 286.65v615.916c0 8.086 5.176 14.435 11.819 14.435H869V272H110.819z m596.467 462.076c-5.279 64.607-12.873 77.169-19.577 83.873-6.616 6.616-19.484 14.097-88.848 19.131-40.035 2.906-93.281 4.506-149.928 4.506-58.856 0-115.507-1.679-159.52-4.729-23.596-1.635-42.838-3.621-57.194-5.903-23.448-3.727-31.656-7.895-36.766-13.005-6.298-6.298-13.55-18.277-19.92-81.089-3.869-38.154-6.406-86.286-7.143-135.529-0.779-52.013 0.592-101.028 3.858-138.017 5.55-62.848 15.317-79.963 23.205-87.852 7.884-7.884 24.127-16.722 84.821-22.499 36.657-3.489 84.441-5.334 138.187-5.334 59.016 0 120.515 2.284 168.728 6.266 25.195 2.081 45.912 4.539 61.574 7.307 21.297 3.763 32.581 7.895 38.946 14.26 6.574 6.574 14.032 18.983 19.352 83.411 3.1 37.546 4.836 86.383 4.888 137.516 0.051 51.347-1.604 100.245-4.663 137.687z m86.229-53.101c-27.035 0-48.952-21.916-48.952-48.951s21.916-48.951 48.952-48.951 48.951 21.916 48.951 48.951c0 27.034-21.916 48.951-48.951 48.951z m0-171.905c-27.035 0-48.952-21.916-48.952-48.951s21.916-48.952 48.952-48.952 48.951 21.916 48.951 48.952c0 27.035-21.916 48.951-48.951 48.951zM912.234 272h-1.697c6.917 2 11.463 8.744 11.463 16.444v608.561c0 9.646-7.598 17.352-17.245 17.352L869.125 917h43.109c6.643 0 11.766-6.349 11.766-14.435V286.65c0-7.998-5.236-14.65-11.766-14.65z" fill="#53AFFD" p-id="2797"></path><path d="M912.234 235H613.401l264.177-131.558c9.541-4.754 13.422-16.31 8.668-25.851l-0.003 0.009c-4.754-9.541-16.342-13.477-25.883-8.723L526.822 235h-62.456L327 97.697c-7.537-7.537-19.758-7.506-27.296 0.031l-0.005 0.021c-7.537 7.537-7.537 19.703 0 27.241L409.764 235H110.819C83.9 235 62 258.239 62 286.65v615.916C62 930.927 83.9 954 110.819 954h801.415C939.153 954 961 930.927 961 902.565V286.65c0-28.411-21.847-51.65-48.766-51.65zM924 902.565c0 8.086-5.123 14.435-11.766 14.435H110.819C104.176 917 99 910.651 99 902.565V286.65c0-7.997 5.289-14.65 11.819-14.65H869v-1h35.977c1.946 0 3.812 0 5.56 1h1.697c6.531 0 11.766 6.652 11.766 14.65v615.915z" fill="" p-id="2798"></path><path d="M922 897.005V288.444c0-7.7-4.768-14.212-11.685-16.536-1.748-0.587-3.392-0.908-5.339-0.908H869v646.229l35.693-2.758c9.646 0 17.307-7.82 17.307-17.466z" fill="#1083EA" p-id="2799"></path><path d="M793.515 460.119m-48.951 0a48.951 48.951 0 1 0 97.902 0 48.951 48.951 0 1 0-97.902 0Z" fill="#FFFFFF" p-id="2800"></path><path d="M793.515 632.023m-48.951 0a48.951 48.951 0 1 0 97.902 0 48.951 48.951 0 1 0-97.902 0Z" fill="#FFFFFF" p-id="2801"></path><path d="M670.864 467.555c-3.448-45.065-7.696-60.748-9.503-65.63-5.49-1.999-24.867-7.332-83.413-11.882-46.15-3.586-104.281-5.643-159.487-5.643-50.906 0-96.358 1.682-131.441 4.865-50.944 4.622-63.37 10.881-65.594 12.295-1.302 1.97-8.162 14.543-12.628 65.879-3.055 35.109-4.334 79.814-3.698 129.282 0.594 46.215 2.836 92.11 6.315 129.232 4.096 43.717 8.48 59.972 10.361 65.278 5.837 1.84 24.205 6.01 76.878 9.389 42.159 2.705 95.529 4.195 150.279 4.195 52.717 0 102.856-1.415 141.181-3.985 49.535-3.322 66.272-7.617 71.336-9.408 1.83-4.808 6.173-20.423 9.606-65.658 2.702-35.612 4.166-81.467 4.122-129.117-0.044-47.457-1.576-93.303-4.314-129.092z" fill="#FFFFFF" p-id="2802"></path><path d="M687.709 375.462c-6.365-6.365-17.648-10.497-38.946-14.26-15.662-2.768-36.378-5.226-61.574-7.307-48.212-3.982-109.711-6.266-168.728-6.266-53.746 0-101.53 1.844-138.187 5.334-60.695 5.777-76.937 14.616-84.821 22.499-7.889 7.889-17.656 25.004-23.205 87.852-3.266 36.989-4.637 86.004-3.858 138.017 0.737 49.243 3.274 97.375 7.143 135.529 6.37 62.812 13.623 74.791 19.92 81.089 5.11 5.11 13.318 9.278 36.766 13.005 14.355 2.282 33.598 4.268 57.194 5.903 44.012 3.05 100.664 4.729 159.52 4.729 56.647 0 109.893-1.6 149.928-4.506 69.364-5.034 82.232-12.515 88.848-19.131 6.704-6.704 14.298-19.267 19.577-83.873 3.059-37.441 4.715-86.339 4.663-137.686-0.052-51.133-1.787-99.97-4.888-137.516-5.32-64.429-12.779-76.838-19.352-83.412z m-26.259 415.96c-5.064 1.791-21.801 6.086-71.336 9.408-38.325 2.57-88.464 3.985-141.181 3.985-54.749 0-108.12-1.489-150.279-4.195-52.673-3.38-71.041-7.549-76.878-9.389-1.881-5.306-6.264-21.56-10.361-65.278-3.478-37.121-5.721-83.016-6.315-129.232-0.636-49.468 0.643-94.173 3.698-129.282 4.467-51.336 11.326-63.909 12.628-65.879 2.224-1.415 14.649-7.673 65.594-12.295 35.083-3.183 80.535-4.865 131.441-4.865 55.206 0 113.337 2.057 159.487 5.643 58.546 4.55 77.923 9.883 83.413 11.882 1.807 4.882 6.055 20.565 9.503 65.63 2.738 35.789 4.27 81.635 4.314 129.092 0.044 47.65-1.421 93.505-4.122 129.117-3.433 45.235-7.777 60.85-9.606 65.658z" fill="#020202" p-id="2803"></path></svg>